<?xml version="1.0" encoding="UTF-8"?>
<svg xmlns="http://www.w3.org/2000/svg" xmlns:xlink="http://www.w3.org/1999/xlink" width="53px" height="60px" viewBox="0 0 53 60" version="1.1">
<g id="surface1">
<path style=" stroke:none;fill-rule:evenodd;fill:rgb(22.352941%,28.627451%,67.058824%);fill-opacity:1;" d="M 52.332031 44.960938 C 52.746094 44.238281 53.003906 43.421875 53.003906 42.691406 L 53.003906 17.308594 C 53.003906 16.578125 52.746094 15.765625 52.332031 15.039062 L 26.503906 30 Z M 52.332031 44.960938 "/>
<path style=" stroke:none;fill-rule:evenodd;fill:rgb(15.686275%,20.784314%,57.647059%);fill-opacity:1;" d="M 28.796875 59.367188 L 50.707031 46.679688 C 51.339844 46.3125 51.914062 45.679688 52.332031 44.960938 L 26.503906 30 L 0.675781 44.960938 C 1.09375 45.679688 1.664062 46.3125 2.296875 46.679688 L 24.207031 59.367188 C 25.46875 60.097656 27.53125 60.097656 28.796875 59.367188 Z M 28.796875 59.367188 "/>
<path style=" stroke:none;fill-rule:evenodd;fill:rgb(36.078431%,41.960784%,75.294118%);fill-opacity:1;" d="M 52.332031 15.039062 C 51.914062 14.320312 51.339844 13.6875 50.707031 13.320312 L 28.796875 0.632812 C 27.535156 -0.0976562 25.46875 -0.0976562 24.207031 0.632812 L 2.296875 13.320312 C 1.035156 14.050781 0 15.847656 0 17.308594 L 0 42.691406 C 0 43.421875 0.257812 44.234375 0.675781 44.960938 Z M 52.332031 15.039062 "/>
<path style=" stroke:none;fill-rule:evenodd;fill:rgb(100%,100%,100%);fill-opacity:1;" d="M 26.503906 47.726562 C 16.761719 47.726562 8.835938 39.773438 8.835938 30 C 8.835938 20.226562 16.761719 12.273438 26.503906 12.273438 C 32.789062 12.273438 38.652344 15.667969 41.800781 21.132812 L 34.15625 25.574219 C 32.578125 22.835938 29.648438 21.140625 26.503906 21.140625 C 21.628906 21.140625 17.667969 25.117188 17.667969 30.003906 C 17.667969 34.890625 21.628906 38.867188 26.503906 38.867188 C 29.648438 38.867188 32.578125 37.167969 34.15625 34.4375 L 41.800781 38.878906 C 38.652344 44.332031 32.789062 47.726562 26.503906 47.726562 Z M 26.503906 47.726562 "/>
</g>
</svg>
